<svg width="77" height="77" viewBox="0 0 77 77" fill="none" xmlns="http://www.w3.org/2000/svg">
<ellipse cx="36.2032" cy="41.4486" rx="12.5876" ry="11.6057" transform="rotate(-58.624 36.2032 41.4486)" fill="#6CCDE1"/>
<path d="M50.3117 20.0122C50.4691 20.1157 50.6931 20.3926 50.902 20.876C51.1033 21.3419 51.2652 21.9424 51.3413 22.6129C51.4941 23.9593 51.2931 25.5215 50.4491 26.8052C48.822 29.2801 47.051 30.8334 45.527 31.4778L44.8098 31.7812L45.3839 32.307C47.0168 33.8012 48.2101 35.5638 48.756 37.5592L48.7555 37.5601C48.8525 37.9157 48.9286 38.2768 48.9818 38.6415L49.0555 39.1516L49.5636 39.0614C51.7725 38.6694 53.7696 40.2351 55.3274 42.5283C56.8671 44.795 57.8279 47.5668 58.0015 49.1214C58.0346 49.4187 57.9688 49.5127 57.9505 49.5331C57.9323 49.5532 57.8596 49.6134 57.6224 49.6108C57.1294 49.6052 56.3242 49.3323 55.3077 48.8066C53.3107 47.7737 50.797 45.926 48.967 44.1586L48.4402 43.6498L48.1582 44.3258C47.7996 45.1846 47.3333 46.0622 46.7479 46.9526C44.6879 50.0858 41.8651 52.3656 38.8869 53.5639L38.1116 53.8757L38.7531 54.4109C40.1717 55.5951 40.571 57.5196 40.3935 59.5027C40.2164 61.4818 39.4733 63.376 38.7971 64.3377C38.6628 64.5287 38.5673 64.544 38.5132 64.5437C38.4217 64.5432 38.251 64.4909 37.997 64.2838C37.492 63.872 36.8986 63.0502 36.305 61.9688C35.1267 59.8223 34.0748 56.8908 33.7734 54.9154L33.7135 54.523L33.3178 54.492C32.3865 54.4193 31.4769 54.2224 30.6052 53.8983L30.3394 53.7995L30.1187 53.977C29.1378 54.7615 28.1726 55.4803 26.7312 55.887C26.562 54.4695 26.8093 53.2501 27.1338 52.0074L27.2041 51.7369L27.0116 51.5356L26.7754 51.2798C26.2359 50.674 25.7739 50.004 25.3929 49.2816L25.2083 48.9312L24.8244 49.0317C22.8913 49.5381 19.7831 49.7343 17.3453 49.5035C16.1168 49.3871 15.1266 49.1677 14.5484 48.8672C14.2577 48.7161 14.1427 48.5806 14.1059 48.4968C14.0843 48.4475 14.0591 48.3539 14.1812 48.1548C14.7958 47.1528 16.2413 45.7204 17.9881 44.7732C19.7383 43.8242 21.6632 43.4267 23.3128 44.2594L24.0592 44.6368L24.0382 43.8014C23.9577 40.5922 24.9316 37.0972 26.9917 33.9637C27.5771 33.0734 28.1971 32.2968 28.8435 31.6271L29.3523 31.1003L28.6764 30.8183C26.3285 29.8389 23.6364 28.2639 21.8966 26.84C21.0106 26.1149 20.4403 25.4836 20.2399 25.0332C20.1439 24.8175 20.1693 24.7271 20.1806 24.7021C20.1918 24.6775 20.2517 24.5797 20.5384 24.492L20.5389 24.4912C22.0348 24.0342 24.9604 23.8177 27.6519 24.3327C30.3747 24.8538 32.6036 26.0669 33.1196 28.2501L33.2382 28.7523L33.7365 28.6183C34.0035 28.5465 34.2735 28.487 34.5458 28.4397L34.8182 28.3968C36.8588 28.1081 38.9422 28.4989 40.9538 29.3979L41.6631 29.7146L41.6584 28.9378C41.648 27.3102 42.367 25.0959 44.0215 22.5793C44.8655 21.2956 46.2193 20.4913 47.5159 20.0978C48.1618 19.9019 48.7778 19.813 49.2855 19.8132C49.8119 19.8134 50.1543 19.9088 50.3117 20.0122ZM35.7205 29.1291C35.5904 29.1354 35.4593 29.1442 35.3277 29.156L34.9323 29.2011C32.3123 29.5716 29.8285 31.1315 27.6723 34.4111C23.3967 40.9143 24.0558 48.9109 29.122 52.2417C34.1885 55.5728 41.7908 53.0079 46.0665 46.5047C48.2228 43.225 48.67 40.3263 47.9719 37.7742L47.9725 37.7734L47.8585 37.3957C47.818 37.2709 47.7749 37.147 47.7288 37.0241L47.5629 36.5831L47.1128 36.722L43.3927 37.8723L43.0375 37.9823L43.0409 38.3539L43.0847 43.5403L43.0841 43.5411L43.0876 43.8718L42.7677 43.9442L37.7931 45.047L37.3569 45.1435L37.4041 45.5872L37.7784 49.1384L37.8165 49.5L37.463 49.5808L34.2552 50.2966L34.0765 49.5001L36.4964 48.9605L36.9319 48.8635L36.8846 48.4199L36.5362 45.1439L36.5108 44.9087L32.9253 42.5514L32.6994 42.6214L29.5537 43.6L29.1277 43.7325L29.2112 44.1708L29.6742 46.6058L28.8721 46.7574L28.2585 43.5292L28.1918 43.1721L28.5397 43.0643L31.9484 42.0002L32.3744 41.8677L32.2909 41.4295L31.3339 36.427L31.2711 36.0994L31.5766 35.9742L36.3584 34.0002L36.7047 33.8574L36.6636 33.4844L36.2421 29.5749L36.1917 29.1058L35.7205 29.1291ZM36.7339 34.725L32.5748 36.4434L32.1974 36.5997L32.2744 36.9998L33.1415 41.5365L33.1815 41.7439L37.1506 44.3534L37.3569 44.308L41.8746 43.3045L42.269 43.2167L42.2664 42.8118L42.2247 38.3386L42.2225 38.0718L36.9781 34.6238L36.7339 34.725ZM42.8448 31.3693C41.1586 30.2607 39.4034 29.5159 37.6595 29.2375L37.0134 29.1341L37.0836 29.7846L37.5155 33.785L37.5406 34.0189L42.5149 37.2893L42.7403 37.2202L46.5843 36.0309L47.2093 35.8376L46.8582 35.2854C45.9113 33.7945 44.531 32.4779 42.8448 31.3693Z" fill="#6CCDE1" stroke="black"/>
</svg>
