<svg width="27" height="27" viewBox="0 0 27 27" fill="none" xmlns="http://www.w3.org/2000/svg">
<path d="M13.5 0.5C15.2071 0.5 16.8975 0.83604 18.4746 1.48926C20.0518 2.14257 21.4852 3.10046 22.6924 4.30762C23.8995 5.51478 24.8574 6.94816 25.5107 8.52539C26.164 10.1025 26.5 11.7929 26.5 13.5C26.5 15.2071 26.164 16.8975 25.5107 18.4746C24.8574 20.0518 23.8995 21.4852 22.6924 22.6924C21.4852 23.8995 20.0518 24.8574 18.4746 25.5107C16.8975 26.164 15.2071 26.5 13.5 26.5C10.0522 26.5 6.74559 25.1304 4.30762 22.6924C1.86964 20.2544 0.5 16.9478 0.5 13.5C0.5 10.0522 1.86964 6.74559 4.30762 4.30762C6.74559 1.86964 10.0522 0.5 13.5 0.5ZM17.9639 7.71973L11.8643 15.0371L8.91406 12.0859L8.56055 11.7324L5.73242 14.5605L12.1338 20.9619L12.4844 20.542L13.5361 19.2803L21.0361 10.2803L21.3564 9.89551L20.9717 9.57617L18.668 7.65625L18.2842 7.33594L17.9639 7.71973Z" fill="#6CCDE1" stroke="black"/>
</svg>
