<svg xmlns="http://www.w3.org/2000/svg" id="Layer_2" data-name="Layer 2" viewBox="0 0 1306.44 283.18"><defs><style>.cls-1{fill:#fff}</style></defs><g id="logo"><path id="_4" d="M157.34 196.12S156.68.43 157.34.43L0 219.25h134.86v62.8h22.48v-63.47h45.62V196.1h-45.62Zm-23.14-.67H44.95l89.91-122.96-.66 122.96Z" class="cls-1" data-name="4"/><path id="o" d="M324.15 0c-78.2 0-141.59 63.39-141.59 141.59s63.39 141.59 141.59 141.59 141.59-63.39 141.59-141.59S402.34 0 324.15 0Zm-.08 23.73c64.89 0 117.5 52.61 117.5 117.5 0 12.31-1.9 24.18-5.41 35.33v-.83s-4.29 24.51-33.96 25.37-34.83-23.22-27.09-40.42 36.98-11.18 36.98-11.18c-8.6-23.22-34.4-43.86-61.05-45.15-26.66-1.29-47.3 6.02-82.98 51.6-19.4 24.78-36.95 34.48-48.93 38.18-8.03-15.9-12.56-33.87-12.56-52.9 0-64.89 52.61-117.5 117.5-117.5Z" class="cls-1"/><path id="c" d="M676.09 91.4s-27.5-31.11-80.24-31.11-76.64 27.05-76.64 27.05-35.16 27.95-35.16 81.15 26.6 78.89 26.6 78.89 24.34 33.81 80.24 35.61 88.81-36.97 88.81-36.97l-15.33-15.33s-41.02 45.98-101.88 22.99-50.94-94.22-50.94-94.22 1.39-46.38 44.16-67.06 90.24.94 104.8 16.45l15.59-17.46Z" class="cls-1"/><path id="e" d="M792.58 60.6c-52.78 0-81.38 25.66-96.84 52.15-21.13 36.2-21.87 81.12-.53 117.2 9.75 16.49 24.94 32.7 48.59 43.1 68.85 30.28 127.99-16.26 132.71-26.75l-14.35-14.01s-30.87 32-70.78 28.99-78.27-19.98-84.51-83.41H891.5s10.19-117.26-98.92-117.26Zm-85.5 93.81s8.28-73.03 82.07-73.03 78.68 73.03 78.68 73.03H707.09Z" class="cls-1"/><path id="a" d="M1086.04 125.55c-2.72-33.17-15.77-42.41-15.77-42.41s-15.77-20.66-64.71-22.84-88.09 29.91-88.09 29.91l12.02 17.04c10.85-9.55 57.28-35.15 99.81-21.26s33.36 68.94 33.36 68.94l-91.9.54c-61.99 10.33-65.8 40.78-66.34 64.71-.54 23.93 18.49 60.9 76.67 62.53s82.65-40.78 82.65-40.78v39.7h23.38s1.63-122.89-1.09-156.06Zm-50.92 120.44c-21.6 19.23-63.74 13.17-63.74 13.17s-42.14-4.48-41.09-43.2c1.05-38.72 47.41-38.46 47.41-38.46l84.55.26.79 26.34c-1.05 6.06-6.32 22.65-27.92 41.88Z" class="cls-1"/><path id="n" d="M1111.91 61.18v220.33h23.22V172.47c0-11.63 2.18-23.17 6.64-33.91 8.65-20.8 27.67-49.26 67.66-53.13 63.98-6.19 70.69 34.06 72.75 70.69V281.5h24.25V137.64c0-13.93-3.38-27.72-10.22-39.86-7.83-13.89-21.55-28.59-45.51-35.06-51.6-13.93-103.2 20.12-114.03 42.83V62.21s-24.25-1.03-24.77-1.03Z" class="cls-1"/></g></svg>